# xmcd
#
# Track frame offsets:
# 150
# 20100
# 37050
# 52898
# 68957
# 86700
# 102493
# 121579
# 138600
# 154399
# 170700
# 187800
# 202745
#
# Disc length: 2921 seconds
#
#
# Revision: 4
# Processed by: cddbd v1.5.2PL0 Copyright (c) Steve Scherf et al.
# Submitted via: FreeRIP 2.931 
#
DISCID=b50b670d
DTITLE=Nechivile - Acústico - Ao Vivo 2
DYEAR=2006
DGENRE=Swing
TTITLE0=TENTEI TE ESQUECER
TTITLE1=PAGO PRA VER
TTITLE2=Saudade Matadeira
TTITLE3=Amor sem Fim
TTITLE4=O amor e o tempo
TTITLE5=QUERO
TTITLE6=CORAÇÃO
TTITLE7=Meu melhor amor
TTITLE8=Caminhos do amor
TTITLE9=A gente se enrosca
TTITLE10=JEITO DE OLHAR
TTITLE11=Vem me namorar
TTITLE12=Por toda a vida
EXTD=
EXTT0=
EXTT1=
EXTT2=
EXTT3=
EXTT4=
EXTT5=
EXTT6=
EXTT7=
EXTT8=
EXTT9=
EXTT10=
EXTT11=
EXTT12=
PLAYORDER=
